<svg xmlns="http://www.w3.org/2000/svg" version="1.1" xmlns:xlink="http://www.w3.org/1999/xlink" xmlns:svgjs="http://svgjs.dev/svgjs" width="2000" height="368" viewBox="0 0 2000 368"><g transform="matrix(1,0,0,1,-1.2121212121213603,-0.7515565287899904)"><svg viewBox="0 0 396 73" data-background-color="#ffffff" preserveAspectRatio="xMidYMid meet" height="368" width="2000" xmlns="http://www.w3.org/2000/svg" xmlns:xlink="http://www.w3.org/1999/xlink"><g id="tight-bounds" transform="matrix(1,0,0,1,0.24000000000003752,0.14908753621040205)"><svg viewBox="0 0 395.5199999999999 72.70181374043227" height="72.70181374043227" width="395.5199999999999"><g><svg viewBox="0 0 668.6575511205322 122.90811270655972" height="72.70181374043227" width="395.5199999999999"><g transform="matrix(1,0,0,1,273.13755112053224,0.655434044082206)"><svg viewBox="0 0 395.52 121.59724461839531" height="121.59724461839531" width="395.52"><g id="textblocktransform"><svg viewBox="0 0 395.52 121.59724461839531" height="121.59724461839531" width="395.52" id="textblock"><g><svg viewBox="0 0 395.52 121.59724461839531" height="121.59724461839531" width="395.52"><g transform="matrix(1,0,0,1,0,0)"><svg width="395.52" viewBox="-3.1500000953674316 -52.900001525878906 257.9800109863281 78.55000305175781" height="121.59724461839531" data-palette-color="#0080ff"><path d="M39.95-5.45Q40.15-4.95 40.15-4.5L40.15-4.5Q40.15-3.35 39.1-2.23 38.05-1.1 36.58-0.4 35.1 0.3 33.95 0.3L33.95 0.3Q31.35 0.3 30.18-2.88 29-6.05 28.35-10.6L28.35-10.6Q28.2-11.65 27.8-11.98 27.4-12.3 26.35-12.3L26.35-12.3 19.45-12.25Q17.95-12.25 15.75-12.35L15.75-12.35 15.15-11.4Q12.55-7.2 10.83-4.88 9.1-2.55 6.95-1 4.8 0.55 2.15 0.55L2.15 0.55Q0.3 0.55-0.88-0.15-2.05-0.85-2.6-1.85-3.15-2.85-3.15-3.75L-3.15-3.75Q-3.15-4.7-2.65-5.48-2.15-6.25-1.5-6.6L-1.5-6.6Q-1.5-4.45-0.48-3.13 0.55-1.8 2.5-1.8L2.5-1.8Q5.2-1.8 7.65-4.42 10.1-7.05 13.5-12.55L13.5-12.55Q10.85-12.85 10.7-13.55L10.7-13.55Q10.6-13.8 10.83-14.4 11.05-15 11.35-15.3L11.35-15.3Q12.1-15 14.8-14.65L14.8-14.65Q15.4-15.7 16.4-17.3L16.4-17.3Q25-31.55 27.5-35.5L27.5-35.5Q28.05-36.4 28.55-36.7 29.05-37 29.65-37L29.65-37Q30.45-37 31.3-36.75L31.3-36.75Q30.25-34.9 30.15-30.5L30.15-30.5 30.1-28.05Q30.1-22.95 30.5-16.7L30.5-16.7Q30.95-9.6 31.88-5.98 32.8-2.35 34.95-2.35L34.95-2.35Q36-2.35 37.38-3.23 38.75-4.1 39.95-5.45L39.95-5.45ZM22.85-14.15Q24.2-14.15 27.95-14.3L27.95-14.3Q27.85-18 27.78-22.48 27.7-26.95 27.65-30.25L27.65-30.25 27.65-31.9Q21.9-22.25 17.05-14.4L17.05-14.4Q20.3-14.15 22.85-14.15L22.85-14.15ZM67.75-12.2Q68.25-12.2 68.47-11.78 68.7-11.35 68.7-10.8L68.7-10.8Q68.7-9 66.8-6.25 64.9-3.5 61.97-1.45 59.05 0.6 56.2 0.6L56.2 0.6Q54.4 0.6 53.42-0.3 52.45-1.2 52.45-3.05L52.45-3.05Q52.45-5.6 53.85-9.98 55.25-14.35 56.4-17.25L56.4-17.25Q56.2-17.55 56-17.55L56-17.55Q55.8-17.55 55.55-17.4L55.55-17.4Q54.65-16.85 52.6-14.95 50.55-13.05 48.6-10.95 46.65-8.85 45.95-7.55L45.95-7.55Q45.15-5.4 44.95-4.83 44.75-4.25 44.55-2.95L44.55-2.95 44.1-0.7Q44.05-0.55 44-0.33 43.95-0.1 43.87-0.05 43.8 0 43.65 0L43.65 0Q43.2 0 42.47-0.1 41.75-0.2 41.75-0.4L41.75-0.4Q41.75-1 42.1-2.35 42.45-3.7 42.8-4.8 43.15-5.9 43.35-6.5L43.35-6.5 43.8-7.9Q45.25-12.9 45.77-15.18 46.3-17.45 46.8-20.25L46.8-20.25Q46.85-20.75 47.5-20.75L47.5-20.75Q47.95-20.75 48.52-20.53 49.1-20.3 49.2-19.9L49.2-19.9Q49-19 48.47-16.85 47.95-14.7 47.2-12.1L47.2-12.1Q50.1-15.35 53.22-18 56.35-20.65 57.4-20.65L57.4-20.65Q57.9-20.65 58.6-20.15 59.3-19.65 59.45-19.2L59.45-19.2Q57.85-14.9 56.4-9.83 54.95-4.75 54.95-3.15L54.95-3.15Q54.95-1.4 56.95-1.4L56.95-1.4Q59.9-1.4 62.92-4.7 65.95-8 67.75-12.2L67.75-12.2ZM101.75-52.9Q104.65-52.9 106.52-51.88 108.4-50.85 108.84-49.2L108.84-49.2 108.84-48.75Q106-50.15 103.05-50.15L103.05-50.15Q97-50.15 92.37-44.5 87.75-38.85 84.34-26.7L84.34-26.7Q82.9-21.55 81.34-14.48 79.8-7.4 79.8-4.7L79.8-4.7Q79.8-3.45 80.25-2.78 80.7-2.1 81.84-2.1L81.84-2.1Q83.25-2.1 85-3.08 86.75-4.05 88.47-6 90.2-7.95 91.5-10.7L91.5-10.7Q92.2-10.7 92.2-9.5L92.2-9.5Q92.2-7.65 90.5-5.35 88.8-3.05 86.3-1.4 83.8 0.25 81.5 0.25L81.5 0.25Q79.9 0.25 78.9-0.6 77.9-1.45 77.5-3L77.5-3Q76.34-1.55 74.67-0.58 73 0.4 71.5 0.4L71.5 0.4Q70.15 0.4 68.8-0.45 67.45-1.3 66.59-2.58 65.75-3.85 65.75-5.05L65.75-5.05Q67-9.25 68.34-15.8L68.34-15.8Q68.55-16.9 69.77-18.15 71-19.4 72.75-20.23 74.5-21.05 76.15-21.05L76.15-21.05Q78.05-21.05 80.05-19.95L80.05-19.95Q81-23.8 82-27.3L82-27.3Q84.59-36.3 87.45-41.9 90.3-47.5 93.77-50.2 97.25-52.9 101.75-52.9L101.75-52.9ZM77.65-8.15L77.95-9.6Q78.55-13 79.59-17.8L79.59-17.8Q77.9-18.9 76.2-18.9L76.2-18.9Q74.45-18.9 72.84-17.88 71.25-16.85 70.59-15L70.59-15Q70.25-14 69.45-9.9L69.45-9.9Q68.95-7.4 68.4-5.2L68.4-5.2Q68.4-4.05 69.5-2.85 70.59-1.65 71.84-1.65L71.84-1.65Q72.84-1.65 74.02-2.43 75.2-3.2 76.22-4.67 77.25-6.15 77.65-8.15L77.65-8.15ZM104.94-20.9Q105.59-20.9 106.42-20.38 107.24-19.85 107.44-19.2L107.44-19.2Q106.84-17.2 106.29-15L106.29-15Q106.04-14.15 105.24-11.28 104.44-8.4 103.14-4.25L103.14-4.25Q100.24 4.9 97.42 11.03 94.59 17.15 89.69 21.4 84.79 25.65 77.49 25.65L77.49 25.65Q73.84 25.65 71.39 24.55 68.94 23.45 67.77 21.7 66.59 19.95 66.59 17.85L66.59 17.85Q66.59 17.15 66.74 16.78 66.89 16.4 66.99 16.1L66.99 16.1Q68.54 19.25 71.12 20.88 73.69 22.5 77.94 22.5L77.94 22.5Q83.64 22.5 87.79 19.58 91.94 16.65 94.94 11.03 97.94 5.4 100.34-3.3L100.34-3.3Q98.84-1.95 96.92-0.98 94.99 0 93.74 0L93.74 0Q92.79 0 91.92-0.6 91.04-1.2 90.47-2.13 89.89-3.05 89.89-3.85L89.89-3.85Q91.24-10 92.44-15.1L92.44-15.1Q93.04-17.8 93.39-19.3L93.39-19.3Q93.59-20.1 93.94-20.4 94.29-20.7 95.04-20.7L95.04-20.7Q95.69-20.7 96.34-20.45L96.34-20.45 92.54-4.45Q92.54-3.7 93.17-3.05 93.79-2.4 94.54-2.4L94.54-2.4Q95.64-2.4 97.94-3.85 100.24-5.3 101.04-6.35L101.04-6.35Q102.14-9.05 102.84-11.75 103.54-14.45 104.44-18.6L104.44-18.6 104.94-20.9ZM161.54-5.45Q161.74-4.95 161.74-4.5L161.74-4.5Q161.74-3.35 160.69-2.23 159.64-1.1 158.16-0.4 156.69 0.3 155.54 0.3L155.54 0.3Q152.94 0.3 151.76-2.88 150.59-6.05 149.94-10.6L149.94-10.6Q149.79-11.65 149.39-11.98 148.99-12.3 147.94-12.3L147.94-12.3 141.04-12.25Q139.54-12.25 137.34-12.35L137.34-12.35 136.74-11.4Q134.14-7.2 132.41-4.88 130.69-2.55 128.54-1 126.39 0.55 123.74 0.55L123.74 0.55Q121.89 0.55 120.71-0.15 119.54-0.85 118.99-1.85 118.44-2.85 118.44-3.75L118.44-3.75Q118.44-4.7 118.94-5.48 119.44-6.25 120.09-6.6L120.09-6.6Q120.09-4.45 121.11-3.13 122.14-1.8 124.09-1.8L124.09-1.8Q126.79-1.8 129.24-4.42 131.69-7.05 135.09-12.55L135.09-12.55Q132.44-12.85 132.29-13.55L132.29-13.55Q132.19-13.8 132.41-14.4 132.64-15 132.94-15.3L132.94-15.3Q133.69-15 136.39-14.65L136.39-14.65Q136.99-15.7 137.99-17.3L137.99-17.3Q146.59-31.55 149.09-35.5L149.09-35.5Q149.64-36.4 150.14-36.7 150.64-37 151.24-37L151.24-37Q152.04-37 152.89-36.75L152.89-36.75Q151.84-34.9 151.74-30.5L151.74-30.5 151.69-28.05Q151.69-22.95 152.09-16.7L152.09-16.7Q152.54-9.6 153.46-5.98 154.39-2.35 156.54-2.35L156.54-2.35Q157.59-2.35 158.96-3.23 160.34-4.1 161.54-5.45L161.54-5.45ZM144.44-14.15Q145.79-14.15 149.54-14.3L149.54-14.3Q149.44-18 149.36-22.48 149.29-26.95 149.24-30.25L149.24-30.25 149.24-31.9Q143.49-22.25 138.64-14.4L138.64-14.4Q141.89-14.15 144.44-14.15L144.44-14.15ZM184.44-8.3Q184.69-7.95 184.69-7.45L184.69-7.45Q184.69-7.05 184.54-6.75 184.39-6.45 184.04-6L184.04-6Q182.74-4.45 180.41-2.93 178.09-1.4 175.54-0.45 172.99 0.5 171.09 0.5L171.09 0.5Q168.94 0.5 167.51-0.83 166.09-2.15 166.09-4.8L166.09-4.8Q166.09-8.15 168.49-17.4L168.49-17.4 163.19-17.2Q163.09-17.25 162.91-17.38 162.74-17.5 162.69-17.6L162.69-17.6Q162.84-17.85 163.24-18.6 163.64-19.35 163.94-19.65L163.94-19.65 169.09-19.6Q170.74-25.7 172.89-32.15L172.89-32.15Q173.79-32.85 175.19-33.68 176.59-34.5 176.89-34.5L176.89-34.5Q177.34-34.3 177.44-33.95L177.44-33.95Q176.54-33.6 176.04-33.02 175.54-32.45 175.04-31.15L175.04-31.15Q173.59-27.45 171.54-19.6L171.54-19.6 184.29-19.55 184.34-18.75Q184.34-18.35 184.19-18.2 184.04-18.05 183.49-18L183.49-18Q182.79-17.95 170.99-17.5L170.99-17.5Q168.69-8.1 168.69-4.95L168.69-4.95Q168.69-3.2 169.54-2.38 170.39-1.55 172.14-1.55L172.14-1.55Q177.24-1.55 184.44-8.3L184.44-8.3ZM201.58-8.3Q201.83-7.95 201.83-7.45L201.83-7.45Q201.83-7.05 201.68-6.75 201.53-6.45 201.18-6L201.18-6Q199.88-4.45 197.56-2.93 195.23-1.4 192.68-0.45 190.13 0.5 188.23 0.5L188.23 0.5Q186.08 0.5 184.66-0.83 183.23-2.15 183.23-4.8L183.23-4.8Q183.23-8.15 185.63-17.4L185.63-17.4 180.33-17.2Q180.23-17.25 180.06-17.38 179.88-17.5 179.83-17.6L179.83-17.6Q179.98-17.85 180.38-18.6 180.78-19.35 181.08-19.65L181.08-19.65 186.23-19.6Q187.88-25.7 190.03-32.15L190.03-32.15Q190.93-32.85 192.33-33.68 193.73-34.5 194.03-34.5L194.03-34.5Q194.48-34.3 194.58-33.95L194.58-33.95Q193.68-33.6 193.18-33.02 192.68-32.45 192.18-31.15L192.18-31.15Q190.73-27.45 188.68-19.6L188.68-19.6 201.43-19.55 201.48-18.75Q201.48-18.35 201.33-18.2 201.18-18.05 200.63-18L200.63-18Q199.93-17.95 188.13-17.5L188.13-17.5Q185.83-8.1 185.83-4.95L185.83-4.95Q185.83-3.2 186.68-2.38 187.53-1.55 189.28-1.55L189.28-1.55Q194.38-1.55 201.58-8.3L201.58-8.3ZM204.28 0.35Q202.53 0.35 201.16-0.83 199.78-2 199.78-4.3L199.78-4.3Q200.53-6.7 202.38-14.95L202.38-14.95Q203.28-19 203.48-19.8L203.48-19.8Q204.13-20.9 205.28-20.9L205.28-20.9Q206.03-20.9 206.03-20.4L206.03-20.4Q205.68-19.15 205.06-16.43 204.43-13.7 204.08-12.15L204.08-12.15Q202.73-5.95 202.23-4.2L202.23-4.2Q202.23-3.05 202.91-2.43 203.58-1.8 204.68-1.8L204.68-1.8Q207.18-1.8 209.71-3.58 212.23-5.35 214.16-7.7 216.08-10.05 217.03-11.75L217.03-11.75Q217.33-11.65 217.43-11.43 217.53-11.2 217.53-10.65L217.53-10.65Q217.53-9.9 217.03-9.1L217.03-9.1Q214.33-4.85 210.98-2.25 207.63 0.35 204.28 0.35L204.28 0.35ZM206.58-27.15Q205.88-27.15 205.48-27.63 205.08-28.1 205.08-28.85L205.08-28.85Q205.08-29.85 205.73-30.68 206.38-31.5 207.38-31.5L207.38-31.5Q208.18-31.5 208.56-31 208.93-30.5 208.93-29.8L208.93-29.8Q208.93-28.8 208.26-27.98 207.58-27.15 206.58-27.15L206.58-27.15ZM237.03-17.85Q237.23-17.8 237.38-17.55 237.53-17.3 237.53-17L237.53-17Q237.53-15.95 236.55-14.98 235.58-14 234-13.4 232.43-12.8 230.83-12.8L230.83-12.8Q228.33-12.8 226.55-14.1 224.78-15.4 224.28-17.75L224.28-17.75Q222.03-17.5 220.15-14.9 218.28-12.3 217.53-9.25L217.53-9.25Q217.43-8.75 216.78-6.18 216.13-3.6 215.53-0.1L215.53-0.1Q215.48 0.05 215.4 0.13 215.33 0.2 215.08 0.2L215.08 0.2Q214.73 0.2 214.03-0.1 213.33-0.4 213.33-0.75L213.33-0.75Q213.33-1.45 213.58-2.6L213.58-2.6Q216.63-16.7 217.53-20.05L217.53-20.05Q217.63-20.5 217.75-20.65 217.88-20.8 218.18-20.8L218.18-20.8Q218.38-20.8 219.03-20.48 219.68-20.15 220.08-19.8L220.08-19.8 219.18-16.9 218.88-15.9Q220.03-17.7 221.53-18.8 223.03-19.9 224.73-19.9L224.73-19.9Q225.23-19.9 225.73-19.8 226.23-19.7 226.43-19.55L226.43-19.55Q226.43-17.1 227.7-15.93 228.98-14.75 231.28-14.75L231.28-14.75Q233.33-14.75 234.68-15.45 236.03-16.15 237.03-17.85L237.03-17.85ZM253.93-11.95Q254.83-11.8 254.83-10.95L254.83-10.95Q254.83-8.95 252.25-6.28 249.68-3.6 246.18-1.68 242.68 0.25 240.33 0.25L240.33 0.25Q238.08 0.25 236.43-0.93 234.78-2.1 233.9-3.55 233.03-5 233.03-5.7L233.03-5.7Q233.83-8.55 234.78-13.6L234.78-13.6 235.33-16.4Q235.53-17.4 236.78-18.48 238.03-19.55 239.58-20.28 241.13-21 242.08-21L242.08-21Q242.83-21 243.9-20.53 244.98-20.05 245.8-19.05 246.63-18.05 246.63-16.5L246.63-16.5Q246.63-14.7 245.43-13.1 244.23-11.5 241.88-10.5 239.53-9.5 236.23-9.5L236.23-9.5 235.53-6.15Q235.53-5.7 236.05-4.65 236.58-3.6 237.75-2.75 238.93-1.9 240.73-1.9L240.73-1.9Q243.13-1.9 245.78-3.48 248.43-5.05 250.63-7.4 252.83-9.75 253.93-11.95L253.93-11.95ZM241.68-18.95Q241.08-18.95 240.13-18.45 239.18-17.95 238.4-17.2 237.63-16.45 237.48-15.8L237.48-15.8Q236.98-13.55 236.58-11.25L236.58-11.25Q240.43-11.4 242.38-12.78 244.33-14.15 244.33-15.9L244.33-15.9Q244.33-17.15 243.43-18.05 242.53-18.95 241.68-18.95L241.68-18.95Z" opacity="1" transform="matrix(1,0,0,1,0,0)" fill="#0080ff" class="undefined-text-0" data-fill-palette-color="primary" id="text-0"></path></svg></g></svg></g></svg></g></svg></g><g><svg viewBox="0 0 244.43135999999996 122.90811270655972" height="122.90811270655972" width="244.43135999999996"><g><svg xmlns="http://www.w3.org/2000/svg" xmlns:xlink="http://www.w3.org/1999/xlink" version="1.1" x="0" y="0" viewBox="6.691993713378906 29.10363006591797 86.30375671386719 43.3963623046875" enable-background="new 0 0 100 100" xml:space="preserve" height="122.90811270655972" width="244.43135999999996" class="icon-icon-0" data-fill-palette-color="accent" id="icon-0"><path d="M75.172 55.524C74.948 51.86 74.174 41.938 72.062 35c-0.438-1.438-8.701-4.742-16.896-2.958-0.146 0.032-0.287 0.04-0.429 0.057-3.842 0.915-7.307 2.318-10.481 3.619l-1.286 0.525c-1.267 0.517-3.118 1.272-4.887 1.272-0.819 0-1.62-0.162-2.338-0.584-0.238-0.14-0.317-0.447-0.178-0.685 0.14-0.238 0.446-0.317 0.685-0.178 1.843 1.083 4.657-0.065 6.34-0.751l1.284-0.525c2.533-1.038 5.249-2.141 8.197-3.02-3.04-0.998-6.53-3.552-13.908-2.356-2.878 0.467-8.667 5.146-9 7.417-1.508 10.272-5.429 16.422-5.557 19.45-0.003 0.074-0.003 0.146-0.002 0.216 0.019 0.861 0.388 1.447 1.283 1.779 3.741 1.388 10.683 2.141 18.643 2.199 1.693 0.04 3.396 0.019 5.111-0.056 9.155-0.261 18.998-1.385 26.604-3.463 0 0-0.006-0.145-0.019-0.403 0.006-0.001 0.013-0.003 0.019-0.004 1.452-0.285 1.667 5.469 0.265 5.948-16.598 5.667-42.292 4.627-52.26 0-1.415-0.657-0.415-5.023 0.355-6.216-9.992 1.696-16.915 4.468-16.915 7.55 0 5.339 19.283 8.667 43.069 8.667C73.551 72.5 91 68 92.833 63.833 94.182 60.769 87.044 57.394 75.172 55.524z" fill="#0080ff" data-fill-palette-color="accent"></path></svg></g></svg></g></svg></g><defs></defs></svg><rect width="395.5199999999999" height="72.70181374043227" fill="none" stroke="none" visibility="hidden"></rect></g></svg></g></svg>